HIERARCHY
ROOT Hips
{
	OFFSET 0.000000 0.000000 0.000000 
	CHANNELS 6 Xposition Yposition Zposition Zrotation Yrotation Xrotation
	JOINT LeftUpLeg
	{
		OFFSET 1.363060 -1.794630 0.839290 
		CHANNELS 3 Zrotation Yrotation Xrotation
		JOINT LeftLeg
		{
			OFFSET 2.448110 -6.726130 0.000000 
			CHANNELS 3 Zrotation Yrotation Xrotation
			JOINT LeftFoot
			{
				OFFSET 2.562200 -7.039590 0.000000 
				CHANNELS 3 Zrotation Yrotation Xrotation
				JOINT LeftToeBase
				{
					OFFSET 0.157640 -0.433110 2.322550 
					CHANNELS 3 Zrotation Yrotation Xrotation
					End Site
					{
						OFFSET 0.000000 0.000000 0.000000 
					}
				}
			}
		}
	}
	JOINT RightUpLeg
	{
		OFFSET -1.305520 -1.794630 0.839290 
		CHANNELS 3 Zrotation Yrotation Xrotation
		JOINT RightLeg
		{
			OFFSET -2.542530 -6.985550 0.000000 
			CHANNELS 3 Zrotation Yrotation Xrotation
			JOINT RightFoot
			{
				OFFSET -2.568260 -7.056230 0.000000 
				CHANNELS 3 Zrotation Yrotation Xrotation
				JOINT RightToeBase
				{
					OFFSET -0.164730 -0.452590 2.363150 
					CHANNELS 3 Zrotation Yrotation Xrotation
					End Site
					{
						OFFSET 0.000000 0.000000 0.000000 
					}
				}
			}
		}
	}
	JOINT Spine
	{
		OFFSET 0.028270 2.035590 -0.193380 
		CHANNELS 3 Zrotation Yrotation Xrotation
		JOINT Spine1
		{
			OFFSET 0.056720 2.048850 -0.042750 
			CHANNELS 3 Zrotation Yrotation Xrotation
			JOINT Neck1
			{
				OFFSET -0.054170 1.746240 0.172020 
				CHANNELS 3 Zrotation Yrotation Xrotation
				JOINT Head
				{
					OFFSET 0.104070 1.761360 -0.123970 
					CHANNELS 3 Zrotation Yrotation Xrotation
					End Site
					{
						OFFSET 0.000000 0.000000 0.000000 
					}
				}
			}
			JOINT LeftArm
			{
				OFFSET 3.362410 1.200890 -0.311210 
				CHANNELS 3 Zrotation Yrotation Xrotation
				JOINT LeftForeArm
				{
					OFFSET 4.983000 -0.000000 -0.000000 
					CHANNELS 3 Zrotation Yrotation Xrotation
					JOINT LeftHand
					{
						OFFSET 3.483560 -0.000000 -0.000000 
						CHANNELS 3 Zrotation Yrotation Xrotation
						JOINT LeftHandIndex1
						{
							OFFSET 0.715260 -0.000000 -0.000000 
							CHANNELS 3 Zrotation Yrotation Xrotation
							End Site
							{
								OFFSET 0.000000 0.000000 0.000000 
							}
						}
					}
				}
			}
			JOINT RightArm
			{
				OFFSET -3.136600 1.374050 -0.404650 
				CHANNELS 3 Zrotation Yrotation Xrotation
				JOINT RightForeArm
				{
					OFFSET -5.241900 -0.000000 -0.000000 
					CHANNELS 3 Zrotation Yrotation Xrotation
					JOINT RightHand
					{
						OFFSET -3.444170 -0.000000 -0.000000 
						CHANNELS 3 Zrotation Yrotation Xrotation
						JOINT RightHandIndex1
						{
							OFFSET -0.622530 -0.000000 -0.000000 
							CHANNELS 3 Zrotation Yrotation Xrotation
							End Site
							{
								OFFSET 0.000000 0.000000 0.000000 
							}
						}
					}
				}
			}
		}
	}
}
MOTION
Frames: 18
Frame Time: 0.041667
10.391903 17.644108 2.420887 -172.849972 10.492347 179.424055 -17.807551 -4.237090 -8.648863 3.872602 13.910222 42.145914 -0.369414 5.029480 -10.960500 0.329200 -3.687800 -10.199900 38.015881 4.154065 -2.075118 -2.415952 -12.152168 32.570757 2.044775 -14.009344 -12.215991 -3.272000 11.122900 -32.695400 2.737621 2.963529 2.393605 -7.615326 1.824223 -0.797062 -0.227330 12.131129 -4.772740 -5.960300 4.984200 -2.768500 -93.885293 13.368076 35.025565 71.245560 -58.250260 -58.816021 0.901063 -5.168167 -23.218382 -7.125000 0.000000 0.000000 78.940063 -23.588353 68.977864 -66.460812 57.409276 -49.215882 -0.144390 2.744216 -25.206315 7.125000 0.000000 0.000000 
10.399404 17.212594 2.505894 -173.678892 10.427273 179.484634 -18.914559 -4.314586 -10.107772 4.586179 14.910494 45.203192 0.335006 4.115502 -16.631189 0.412500 -4.122700 -11.422100 37.217505 4.570380 -5.090871 -3.392588 -13.806974 37.683292 1.397181 -12.265951 -17.553786 -3.520600 11.493500 -33.963000 2.720296 2.937906 2.493085 -7.304995 1.806497 -1.090775 -0.602145 12.522619 -5.638523 -6.233900 5.089300 -3.179800 -95.138462 12.435414 35.367678 68.260280 -56.837371 -55.877481 0.917490 -5.312417 -23.333203 -7.125000 0.000000 0.000000 80.092543 -22.596447 68.833591 -63.434760 56.325894 -46.307680 -0.143526 2.808857 -26.013857 7.125000 0.000000 0.000000 
10.404972 16.866883 2.595447 -174.128416 10.484154 179.651254 -19.716205 -4.827375 -11.702777 5.290165 15.851132 48.098994 0.563762 4.829970 -20.410531 0.471900 -4.406000 -12.221600 37.054478 5.815762 -8.153439 -4.417623 -15.362209 42.512349 1.143137 -12.422319 -21.240115 -3.402300 11.319400 -33.364700 2.744002 2.948101 2.635721 -7.001891 1.819998 -1.325928 -1.033392 13.021873 -6.575044 -6.513400 5.244800 -3.581300 -96.409384 11.602840 35.571584 65.248603 -55.387415 -52.766634 0.939452 -5.453625 -24.143387 -7.125000 0.000000 0.000000 81.398246 -21.256861 68.593453 -59.922947 55.025612 -42.920678 -0.148057 2.865122 -27.007561 7.125000 0.000000 0.000000 
10.410995 16.612771 2.682614 -174.189548 10.608438 179.839724 -20.120447 -5.478934 -13.259900 5.930314 16.653472 50.639228 0.441740 6.328525 -22.563823 0.517400 -4.610200 -12.800100 37.475367 7.426602 -10.771793 -5.334419 -16.645825 46.523374 1.184210 -13.654219 -23.750359 -3.043600 10.765300 -31.492500 2.802742 2.992728 2.821513 -6.750720 1.866026 -1.444908 -1.444183 13.560691 -7.420394 -6.759200 5.430600 -3.913500 -97.592148 11.012068 35.694474 62.571815 -54.087876 -49.919532 0.985531 -5.591869 -25.855680 -7.125000 0.000000 0.000000 82.685671 -19.915128 68.199238 -56.690626 53.773321 -39.810386 -0.161749 2.917542 -28.179975 7.125000 0.000000 0.000000 
10.414746 16.456621 2.758984 -173.830658 10.689829 -179.903540 -20.015370 -6.073000 -14.562342 6.431813 17.230522 52.526358 0.221773 7.693685 -23.595109 0.485300 -4.466800 -12.393900 38.406088 8.934877 -12.634695 -5.983926 -17.541093 49.266137 1.344348 -15.112067 -25.451370 -2.583600 9.988300 -28.939000 2.879648 3.058979 3.011652 -6.694630 1.936930 -1.442840 -1.726149 14.009346 -8.052508 -6.917200 5.594000 -4.164800 -98.562014 10.796774 35.890951 60.523321 -53.091433 -47.734996 1.064558 -5.721740 -28.211056 -7.125000 0.000000 0.000000 83.853294 -18.957251 67.638206 -54.367549 52.828349 -37.587195 -0.182635 2.968450 -29.389402 7.125000 0.000000 0.000000 
10.416110 16.404117 2.811488 -173.752092 10.594111 -179.725965 -20.169707 -6.633143 -15.269447 6.646498 17.530181 53.374309 0.056795 8.506310 -23.948400 0.369000 -3.901800 -10.800700 38.948599 10.021189 -13.549755 -6.277966 -17.969643 50.514225 1.495418 -16.290890 -26.582332 -2.151800 9.175400 -26.345500 2.901382 3.071677 3.170943 -6.737033 1.986716 -1.357940 -1.849543 14.277996 -8.361287 -6.988000 5.697500 -4.307300 -99.283506 11.063767 36.274886 59.173362 -52.444112 -46.352265 1.143420 -5.824128 -30.453898 -7.125000 0.000000 0.000000 84.748296 -18.742736 66.994583 -53.395390 52.411220 -36.667643 -0.205291 3.012828 -30.465616 7.125000 0.000000 0.000000 
10.415314 16.449802 2.837513 -173.881122 10.260796 -179.558781 -20.447969 -7.108558 -15.378651 6.530364 17.529094 53.074060 -0.010258 8.716849 -23.875399 0.230600 -3.091000 -8.532200 39.093972 10.429871 -13.591281 -6.189527 -17.945966 50.270682 1.583198 -16.990446 -27.242042 -1.830300 8.503200 -24.253200 2.872103 3.033026 3.268807 -6.914221 2.010475 -1.202424 -1.701208 14.303695 -8.261978 -6.904400 5.719000 -4.307600 -99.699203 11.770567 36.965516 58.458071 -52.122067 -45.719195 1.185087 -5.883922 -31.823651 -7.125000 0.000000 0.000000 85.281709 -19.421868 66.318315 -53.927663 52.619700 -37.182250 -0.220917 3.042961 -31.207629 7.125000 0.000000 0.000000 
10.410200 16.575495 2.843536 -174.078680 9.665665 -179.266228 -20.678731 -7.533347 -15.050192 6.105960 17.246475 51.702522 -0.128975 8.743575 -23.089612 0.184400 -2.765700 -7.627200 38.922164 10.259765 -13.117225 -5.794924 -17.562922 48.818653 1.683788 -17.374642 -27.158419 -1.705600 8.223900 -23.396400 2.812234 2.950569 3.284660 -7.233667 2.004585 -1.031018 -1.391033 14.118028 -7.886490 -6.735100 5.661700 -4.211900 -99.804373 12.840814 37.938459 58.235420 -52.057379 -45.657031 1.150542 -5.900055 -31.880664 -7.125000 0.000000 0.000000 85.413482 -20.962463 65.711354 -55.923558 53.422312 -39.088951 -0.230324 3.060302 -31.639591 7.125000 0.000000 0.000000 
10.403040 16.761306 2.840013 -174.426158 8.919312 -178.940267 -20.943116 -7.936951 -14.476265 5.491406 16.768608 49.628888 -0.438559 9.020394 -21.284976 0.230800 -3.092200 -8.535500 38.403746 9.869702 -12.326913 -5.231984 -16.935576 46.599468 1.865173 -17.624642 -26.100730 -1.713100 8.241100 -23.448800 2.723474 2.885730 3.257192 -7.581410 2.004166 -0.871846 -1.038384 13.792455 -7.463750 -6.539000 5.545000 -4.097800 -99.526628 14.156012 39.124558 58.422230 -52.209182 -46.034723 1.047124 -5.875122 -30.917259 -7.125000 0.000000 0.000000 85.173099 -23.163155 65.137464 -59.069754 54.654169 -42.102786 -0.236506 3.066626 -31.914217 7.125000 0.000000 0.000000 
10.394971 16.992007 2.835922 -174.859341 8.179338 -178.613564 -21.197341 -8.248009 -13.877460 4.812138 16.178506 47.217148 -0.916027 9.596349 -18.418470 0.381500 -3.966600 -10.982600 37.700734 9.517564 -11.409549 -4.629898 -16.189947 44.058122 2.205193 -18.139243 -24.043208 -1.871700 8.593500 -24.531700 2.621855 2.852135 3.228270 -7.871286 2.022535 -0.702142 -0.752150 13.458823 -7.126355 -6.369500 5.421200 -3.986600 -98.909426 15.644223 40.308184 58.973619 -52.549722 -46.761287 0.931848 -5.826439 -29.644914 -7.125000 0.000000 0.000000 84.526568 -25.688239 64.693632 -62.955203 56.126981 -45.821629 -0.246897 3.061344 -32.227859 7.125000 0.000000 0.000000 
10.386675 17.252370 2.837513 -175.328737 7.599724 -178.362238 -21.446674 -8.277408 -13.327798 4.166336 15.540443 44.772988 -1.370715 10.157068 -15.046741 0.600400 -4.960400 -13.795500 36.940479 9.296966 -10.487477 -4.085471 -15.440232 41.584837 2.614643 -18.861699 -21.383969 -2.021700 8.911100 -25.517500 2.510846 2.876528 3.236229 -8.074181 2.083874 -0.511188 -0.584154 13.195946 -6.986595 -6.255500 5.318300 -3.920000 -97.940023 17.271378 41.393098 59.941823 -53.095832 -47.861232 0.863673 -5.768590 -28.927878 -7.125000 0.000000 0.000000 83.533398 -28.258684 64.412245 -67.176422 57.682176 -49.814970 -0.263656 3.038076 -32.726221 7.125000 0.000000 0.000000 
10.377356 17.524098 2.848537 -175.846933 7.266417 -178.202305 -21.782641 -7.960441 -12.883689 3.598489 14.920876 42.512330 -1.729847 10.728269 -11.987623 0.842300 -5.854200 -16.362000 36.126766 9.235618 -9.735432 -3.664316 -14.793868 39.504743 3.021032 -19.712564 -18.448778 -2.106600 9.084600 -26.060500 2.396180 2.951420 3.293895 -8.151977 2.185266 -0.302242 -0.557623 13.047964 -7.042353 -6.203000 5.259700 -3.903200 -96.707734 19.034541 42.323262 61.309814 -53.833101 -49.313855 0.863963 -5.708890 -29.131391 -7.125000 0.000000 0.000000 82.183941 -30.710194 64.331530 -71.485742 59.226409 -53.781106 -0.283742 2.985562 -33.394986 7.125000 0.000000 0.000000 
10.363832 17.789575 2.870925 -176.241192 7.172979 -178.093084 -22.053634 -7.404169 -12.562208 3.130564 14.364140 40.574501 -1.981534 11.270354 -9.816356 1.016300 -6.413800 -17.989800 35.424130 9.294936 -9.334376 -3.395986 -14.348349 38.065598 3.337985 -20.479037 -15.688034 -2.165600 9.202800 -26.431700 2.286982 3.047084 3.391840 -8.205886 2.316440 -0.084145 -0.624002 12.998602 -7.224395 -6.172200 5.246900 -3.916700 -95.229274 20.964609 43.096855 63.046770 -54.747699 -51.092323 0.917853 -5.639887 -29.945475 -7.125000 0.000000 0.000000 80.555613 -32.938404 64.458148 -75.691191 60.672814 -57.476873 -0.295083 2.896506 -34.080542 7.125000 0.000000 0.000000 
10.346104 18.031414 2.903996 -176.568987 7.269971 -177.953435 -22.340180 -6.828428 -12.401584 2.754282 13.917764 39.026555 -2.181038 11.895271 -8.925644 1.125800 -6.739400 -18.945600 34.769321 9.422123 -9.515013 -3.302438 -14.183312 37.471161 3.541281 -21.061632 -13.519399 -2.160000 9.191700 -26.396800 2.187982 3.135173 3.508237 -8.189108 2.452285 0.121736 -0.775038 13.015785 -7.486641 -6.157100 5.269400 -3.960200 -93.579186 23.138843 43.745108 65.052792 -55.794013 -53.088741 0.967405 -5.553619 -30.742579 -7.125000 0.000000 0.000000 78.545851 -35.031601 64.898286 -79.950448 62.030720 -60.989855 -0.285819 2.766358 -34.710842 7.125000 0.000000 0.000000 
10.325193 18.238136 2.947409 -176.826839 7.411199 -177.791261 -22.625774 -6.419206 -12.362701 2.466005 13.601213 37.902394 -2.310838 12.418003 -9.208272 1.129900 -6.751400 -18.980800 34.179496 9.376249 -10.343436 -3.387992 -14.316787 37.787436 3.626060 -21.333586 -12.195300 -2.121900 9.115400 -26.157100 2.110067 3.163125 3.637176 -8.091738 2.561801 0.298174 -1.011453 13.079287 -7.823183 -6.159000 5.319100 -4.042200 -91.818785 25.571906 44.326020 67.203914 -56.913544 -55.174144 0.981674 -5.448842 -31.060539 -7.125000 0.000000 0.000000 76.231692 -37.093267 65.561980 -84.235978 63.239753 -64.271377 -0.245665 2.599734 -35.104247 7.125000 0.000000 0.000000 
10.303145 18.403377 2.999118 -177.099067 7.495934 -177.647530 -22.982195 -6.275892 -12.369284 2.255218 13.412235 37.173203 -2.347422 12.701085 -10.258693 1.093300 -6.644800 -18.667200 33.597271 9.078944 -11.719245 -3.649598 -14.715072 38.961580 3.598995 -21.210795 -11.758556 -2.056600 8.983100 -25.742400 2.055374 3.119923 3.780361 -7.895466 2.634052 0.434463 -1.443446 13.185030 -8.221510 -6.259000 5.388300 -4.137900 -89.972484 28.252433 44.919546 69.433113 -58.069259 -57.264788 0.944521 -5.327846 -30.777117 -7.125000 0.000000 0.000000 73.653040 -39.288045 66.399813 -88.672504 64.278093 -67.421701 -0.179580 2.402462 -35.335385 7.125000 0.000000 0.000000 
10.280984 18.522819 3.057759 -177.353329 7.493539 -177.509627 -23.345090 -6.422032 -12.418185 2.117869 13.338209 36.790350 -2.284381 12.680134 -11.544353 1.082400 -6.612600 -18.572700 33.089490 8.648654 -13.483300 -4.061124 -15.308210 40.802852 3.485483 -20.741068 -11.940296 -1.985000 8.834800 -25.279800 2.025229 3.048745 3.937943 -7.647884 2.690506 0.540739 -2.080254 13.313177 -8.690416 -6.477700 5.463800 -4.239800 -88.016512 31.131571 45.587128 71.721109 -59.245909 -59.329160 0.868382 -5.189975 -30.167924 -7.125000 0.000000 0.000000 70.925909 -41.779490 67.330729 -93.251247 65.096319 -70.459277 -0.097842 2.183705 -35.527296 7.125000 0.000000 0.000000 
10.258596 18.593961 3.121742 -177.554397 7.422461 -177.338129 -23.651785 -6.858579 -12.550959 2.052034 13.371076 36.712348 -2.147874 12.393054 -12.647509 1.097200 -6.656200 -18.700700 32.708743 8.290604 -15.487039 -4.586129 -16.018504 43.072865 3.318140 -20.039578 -12.328853 -1.949600 8.760200 -25.048100 2.020106 2.985914 4.107436 -7.384588 2.747646 0.627266 -2.911963 13.477772 -9.213751 -6.823800 5.549200 -4.327700 -85.994590 34.151627 46.301022 73.970703 -60.393236 -61.268168 0.766097 -5.038343 -29.510065 -7.125000 0.000000 0.000000 68.110931 -44.647843 68.360185 -97.784974 65.651404 -73.306738 -0.011116 1.957871 -35.786625 7.125000 0.000000 0.000000 
